<svg version="1.1" viewBox="0.0 0.0 32.0 32.0" fill="none" stroke="none" stroke-linecap="square" stroke-miterlimit="10" xmlns:xlink="http://www.w3.org/1999/xlink" xmlns="http://www.w3.org/2000/svg"><clipPath id="g318abf3a353_0_0.0"><path d="m0 0l32.0 0l0 32.0l-32.0 0l0 -32.0z" clip-rule="nonzero"/></clipPath><g clip-path="url(#g318abf3a353_0_0.0)"><path fill="#000000" fill-opacity="0.0" d="m0 0l32.0 0l0 32.0l-32.0 0z" fill-rule="evenodd"/><path fill="#000000" fill-opacity="0.0" d="m-3.070866 1.9658793l32.0 0l0 31.999998l-32.0 0z" fill-rule="evenodd"/><path fill="#6d9eeb" d="m14.97008 10.960878q0 1.359375 -0.75 2.4375q-0.734375 1.0625 -2.03125 1.765625q0.828125 0.578125 1.3125 1.40625q0.5 0.8125 0.5 1.8125q0 1.1875 -0.71875 2.34375q-0.703125 1.15625 -1.890625 2.046875q-1.1875 0.890625 -2.71875 1.4375q-1.5156245 0.546875 -3.0937495 0.546875q-1.71875 0 -3.0 -0.65625q-1.28125 -0.640625 -2.015625 -1.828125q0.21875 -0.65625 0.57812506 -1.640625q0.375 -0.984375 0.8125 -2.0625q0.4375 -1.09375 0.890625 -2.171875q0.453125 -1.078125 0.84375 -1.9375q0.84375 -1.875 1.5 -3.09375q0.65625 -1.234375 1.203125 -1.96875q-1.203125 0.375 -2.203125 0.859375q-0.984375 0.46875 -1.453125 0.90625q-0.1875 -0.140625 -0.40625 -0.390625q-0.203125 -0.265625 -0.390625 -0.578125q-0.1875 -0.328125 -0.3125 -0.65625q-0.109375 -0.328125 -0.140625 -0.59375q0.578125 -0.40625 1.484375 -0.765625q0.921875 -0.359375 2.0 -0.625q1.078125 -0.265625 2.203125 -0.421875q1.1406245 -0.15625 2.1718745 -0.15625q2.640625 0 4.125 1.0625q1.5 1.0625 1.5 2.921875zm-8.375 5.265625q-0.421875 -0.203125 -0.765625 -0.59375q-0.515625 1.109375 -0.96875 2.1875q-0.453125 1.078125 -0.8125 2.015625q-0.34375 0.921875 -0.5625 1.609375q-0.21875 0.671875 -0.234375 0.984375q0.3125 0.171875 0.734375 0.265625q0.421875 0.078125 1.0625 0.078125q1.5 0 2.859375 -0.40625q1.3749995 -0.421875 2.4062495 -1.140625q1.03125 -0.71875 1.640625 -1.640625q0.625 -0.921875 0.625 -1.9375q0 -1.453125 -1.25 -2.09375q-1.71875 0.71875 -3.8749995 0.71875q-0.3125 0 -0.484375 0q-0.15625 0 -0.375 -0.046875zm4.2656245 -7.640625q-0.46875 0 -0.984375 0.0625q-0.515625 0.046875 -1.078125 0.15625q0.078125 0.09375 0.125 0.203125q0.0625 0.09375 0.109375 0.203125q-0.203125 0.25 -0.484375 0.765625q-0.28125 0.5 -0.6406245 1.171875q-0.34375 0.671875 -0.734375 1.484375q-0.375 0.8125 -0.78125 1.671875q0.375 -0.078125 0.90625 -0.125q0.546875 -0.0625 1.0781245 -0.0625q0.28125 0 0.546875 0.015625q0.28125 0.015625 0.546875 0.0625q1.0625 -0.171875 1.90625 -0.515625q0.84375 -0.34375 1.453125 -0.78125q0.625 -0.453125 0.953125 -1.0q0.328125 -0.5625 0.328125 -1.171875q0 -1.0625 -0.84375 -1.59375q-0.828125 -0.546875 -2.40625 -0.546875zm13.349305 13.21875q0 -0.921875 0.3125 -2.375q0.3125 -1.453125 0.8125 -3.09375q-1.453125 0.109375 -2.921875 0.28125q-1.453125 0.171875 -2.53125 0.203125q-0.984375 2.3125 -1.578125 4.265625q-0.578125 1.9375 -0.90625 3.78125q-0.84375 -0.203125 -1.390625 -0.703125q-0.54687595 -0.484375 -1.015626 -1.234375q0.1875 -0.34375 0.40625 -0.890625q0.234375 -0.5625 0.546875 -1.34375q0.32812595 -0.78125 0.73437595 -1.828125q0.40625 -1.046875 0.9375 -2.421875q-0.734375 -0.3125 -0.96875 -0.859375q0.109375 -0.09375 0.484375 -0.1875q0.390625 -0.09375 0.96875 -0.203125l0.28125 -0.71875q0.46875 -1.1875 0.765625 -2.0q0.296875 -0.8125 0.5 -1.59375q0.21875 -0.78125 0.390625 -1.71875q0.1875 -0.953125 0.453125 -2.40625q0.9375 0.1875 1.6875 0.828125q0.765625 0.625 1.3125 1.53125q-0.203125 0.265625 -0.484375 0.796875q-0.28125 0.515625 -0.625 1.265625q-0.34375 0.734375 -0.75 1.65625q-0.390625 0.90625 -0.84375 1.90625q1.359375 -0.171875 2.75 -0.328125q1.40625 -0.15625 2.484375 -0.21875q0.390625 -1.140625 0.8125 -2.21875q0.4375 -1.09375 0.859375 -2.0q0.421875 -0.90625 0.796875 -1.578125q0.390625 -0.6875 0.703125 -1.015625q0.21875 0.015625 0.578125 0.15625q0.359375 0.140625 0.734375 0.34375q0.375 0.203125 0.671875 0.4375q0.3125 0.21875 0.421875 0.421875q-0.390625 0.375 -0.796875 0.96875q-0.390625 0.59375 -0.78125 1.375q-0.375 0.765625 -0.75 1.671875q-0.375 0.890625 -0.703125 1.859375q0.4375 0.390625 0.4375 0.984375q0 0.421875 -0.171875 0.78125q-0.203125 -0.046875 -0.40625 -0.0625q-0.1875 -0.015625 -0.40625 -0.03125q-0.375 1.1875 -0.6875 2.359375q-0.296875 1.15625 -0.515625 2.21875q-0.203125 1.046875 -0.328125 1.9375q-0.125 0.875 -0.125 1.46875q0 0.21875 0.015625 0.34375q0.015625 0.140625 0.03125 0.234375q-0.484375 -0.03125 -0.703125 -0.171875q-0.21875 -0.140625 -0.328125 -0.3125q-0.109375 -0.15625 -0.203125 -0.328125q-0.078125 -0.15625 -0.28125 -0.25q-0.15625 -0.0625 -0.296875 -0.3125q-0.125 -0.234375 -0.21875 -0.546875q-0.078125 -0.3125 -0.125 -0.609375q-0.046875 -0.3125 -0.046875 -0.515625z" fill-rule="nonzero"/></g></svg>